<?xml version="1.0" standalone="no"?>
<!DOCTYPE svg PUBLIC "-//W3C//DTD SVG 20010904//EN"
 "http://www.w3.org/TR/2001/REC-SVG-20010904/DTD/svg10.dtd">
<svg version="1.0" xmlns="http://www.w3.org/2000/svg"
 width="726.000000pt" height="592.000000pt" viewBox="0 0 726.000000 592.000000"
 preserveAspectRatio="xMidYMid meet">

<g transform="translate(0.000000,592.000000) scale(0.100000,-0.100000)"
fill="#000000" stroke="none">
<path d="M2021 5404 l-42 -37 4 -1041 c2 -572 8 -1054 12 -1069 4 -16 19 -36
33 -45 24 -16 179 -17 2190 -20 l2165 -3 38 37 39 38 0 1049 0 1049 -39 39
-39 39 -2159 0 -2159 0 -43 -36z m3811 -249 c11 -87 57 -173 127 -238 72 -66
135 -98 221 -112 l65 -11 3 -482 2 -482 -27 -5 c-148 -30 -205 -59 -282 -140
-55 -58 -96 -135 -106 -200 -3 -22 -8 -50 -11 -63 l-4 -22 -1603 2 -1602 3 -7
55 c-12 83 -68 189 -132 248 -73 66 -129 92 -259 117 l-27 5 2 482 3 482 67
12 c87 16 176 64 234 126 52 56 104 158 111 221 2 23 6 48 9 55 3 10 329 12
1606 10 l1603 -3 7 -60z"/>
<path d="M4111 5084 c-175 -47 -334 -204 -418 -414 -51 -126 -58 -170 -58
-365 0 -194 7 -233 66 -376 111 -271 361 -440 589 -399 182 33 337 166 436
375 59 125 74 208 74 412 0 213 -13 275 -86 422 -48 97 -68 127 -133 192 -142
141 -311 196 -470 153z m187 -219 c5 -76 10 -85 60 -107 75 -33 130 -75 157
-122 14 -23 25 -47 25 -53 0 -6 -35 -20 -77 -33 l-77 -23 -54 29 c-90 49 -197
37 -245 -28 -26 -35 -16 -73 23 -93 17 -9 75 -22 130 -30 117 -18 174 -40 230
-91 60 -54 83 -106 84 -184 1 -119 -69 -217 -187 -262 l-62 -24 -3 -62 -3 -62
-79 0 -80 0 0 43 c0 63 -17 87 -80 110 -90 33 -190 152 -149 178 8 5 46 16 84
25 l70 17 39 -27 c38 -25 67 -31 146 -26 74 4 129 56 111 103 -16 41 -53 58
-162 73 -56 8 -121 23 -144 33 -188 83 -229 318 -78 450 24 22 67 47 94 56 27
9 51 20 54 25 3 5 8 30 11 57 10 69 16 74 93 71 l66 -3 3 -40z"/>
<path d="M2875 4542 c-47 -22 -111 -90 -131 -138 -8 -18 -14 -61 -14 -94 0
-73 16 -114 64 -168 50 -54 111 -82 183 -82 218 1 334 266 185 423 -66 70
-204 98 -287 59z"/>
<path d="M5369 4546 c-176 -63 -216 -303 -70 -427 159 -137 410 -20 411 192 0
170 -178 294 -341 235z"/>
<path d="M2047 2719 c-93 -10 -210 -41 -293 -79 -91 -41 -559 -360 -1217 -828
l-217 -155 26 -46 c41 -71 293 -442 463 -683 105 -149 160 -218 172 -218 10 0
87 47 171 105 204 140 335 221 389 242 32 12 76 17 164 17 l120 0 320 -116
c176 -64 475 -173 665 -243 190 -70 437 -160 550 -200 436 -154 433 -154 559
-88 71 37 412 260 671 440 52 36 284 196 515 356 602 416 1231 854 1293 899
98 73 151 184 139 296 -19 176 -129 289 -293 300 -40 2 -89 1 -110 -2 -39 -8
-325 -197 -909 -600 -165 -114 -389 -269 -497 -344 l-198 -136 0 -96 c0 -169
-48 -282 -169 -398 -31 -29 -85 -67 -121 -85 -61 -30 -70 -32 -206 -35 l-142
-4 -568 286 c-656 330 -721 366 -730 402 -8 33 8 68 41 90 25 16 29 16 93 -10
37 -14 307 -145 600 -290 293 -146 559 -275 590 -287 74 -27 186 -23 255 10
60 29 119 89 151 154 22 43 26 64 26 142 0 77 -4 99 -25 141 -53 106 -43 100
-1070 618 -352 178 -690 344 -751 369 -171 72 -299 93 -457 76z"/>
</g>
</svg>
