<?xml version="1.0" standalone="no"?>
<!DOCTYPE svg PUBLIC "-//W3C//DTD SVG 20010904//EN"
 "http://www.w3.org/TR/2001/REC-SVG-20010904/DTD/svg10.dtd">
<svg version="1.0" xmlns="http://www.w3.org/2000/svg"
 width="285.000000pt" height="285.000000pt" viewBox="0 0 285.000000 285.000000"
 preserveAspectRatio="xMidYMid meet">
<metadata>
Created by potrace 1.14, written by Peter Selinger 2001-2017
</metadata>
<g transform="translate(0.000000,285.000000) scale(0.100000,-0.100000)"
fill="#000000" stroke="none">
<path d="M1307 2839 c-153 -37 -296 -168 -347 -318 -61 -181 -19 -368 110
-501 31 -32 80 -70 108 -84 49 -25 52 -29 52 -64 0 -22 14 -67 35 -111 36 -75
42 -100 26 -116 -5 -6 -16 -32 -23 -60 -10 -33 -22 -53 -37 -60 -30 -14 -39
-54 -36 -170 3 -86 0 -107 -20 -150 -12 -27 -25 -81 -29 -120 -4 -38 -16 -90
-27 -114 -21 -48 -26 -92 -15 -128 5 -16 1 -27 -15 -40 -63 -51 -99 -87 -104
-104 -4 -12 -15 -19 -30 -19 -29 0 -82 -43 -90 -73 -4 -12 -16 -48 -28 -79
l-22 -57 -120 -3 -119 -3 -7 -40 c-4 -22 -10 -56 -14 -75 -10 -60 -45 -190
-70 -263 -14 -38 -22 -73 -19 -78 3 -5 432 -9 955 -9 818 0 949 2 949 15 0 13
-8 36 -31 90 -17 40 -60 201 -71 266 -6 37 -14 72 -17 78 -4 6 -53 12 -120 13
l-114 3 -17 50 c-40 118 -87 181 -120 160 -5 -3 -10 -1 -10 6 0 7 -9 31 -19
53 -10 23 -21 52 -24 66 -14 67 -52 153 -70 158 -14 4 -17 10 -11 26 8 25 9
90 0 129 -12 57 -26 145 -32 203 -3 32 -13 67 -21 76 -9 11 -13 26 -10 40 10
35 -13 98 -35 98 -15 0 -20 6 -18 23 0 1 -9 29 -20 61 -11 33 -20 67 -20 77 0
23 76 116 202 246 54 56 98 108 99 115 2 31 6 58 26 208 5 30 8 93 7 140 -1
78 -4 92 -42 173 -23 48 -46 87 -51 87 -6 0 -39 25 -73 56 -71 63 -133 98
-211 118 -61 16 -186 18 -240 5z"/>
</g>
</svg>
