<?xml version="1.0" standalone="no"?>
<!DOCTYPE svg PUBLIC "-//W3C//DTD SVG 20010904//EN"
 "http://www.w3.org/TR/2001/REC-SVG-20010904/DTD/svg10.dtd">
<svg version="1.0" xmlns="http://www.w3.org/2000/svg"
 width="699.000000pt" height="592.000000pt" viewBox="0 0 699.000000 592.000000"
 preserveAspectRatio="xMidYMid meet">

<g transform="translate(0.000000,592.000000) scale(0.100000,-0.100000)"
fill="#000000" stroke="none">
<path d="M1795 5030 c-82 -12 -136 -29 -220 -70 -170 -81 -303 -234 -367 -420
-30 -88 -32 -104 -32 -225 0 -119 3 -137 31 -218 43 -123 86 -189 183 -287 94
-94 173 -142 300 -182 64 -19 95 -23 210 -22 125 0 142 3 224 32 237 84 406
269 467 512 31 122 24 282 -18 397 -95 263 -307 438 -583 482 -72 12 -121 12
-195 1z"/>
<path d="M4955 5025 c-157 -28 -292 -101 -401 -216 -210 -223 -258 -546 -119
-818 65 -130 192 -255 320 -316 123 -59 175 -70 325 -69 118 0 145 4 215 27
115 38 199 91 290 182 87 87 149 190 182 300 25 88 29 289 7 374 -70 271 -284
475 -556 531 -106 22 -164 24 -263 5z"/>
<path d="M3350 4545 c-194 -32 -385 -165 -489 -338 -18 -31 -47 -96 -64 -144
-29 -82 -31 -98 -31 -223 0 -118 3 -145 26 -212 41 -123 92 -204 187 -299 69
-68 104 -95 171 -128 220 -107 431 -109 650 -4 81 39 107 59 185 137 77 77 98
105 137 186 52 108 64 152 74 267 21 256 -101 505 -318 649 -90 60 -167 91
-271 110 -97 17 -155 17 -257 -1z"/>
<path d="M1623 3479 c-364 -47 -694 -306 -833 -653 -66 -163 -64 -134 -67
-988 l-4 -778 720 0 720 0 1 539 c0 574 1 597 52 751 47 145 144 298 261 412
117 115 254 195 429 252 l99 33 -39 49 c-160 202 -401 340 -659 379 -107 16
-567 19 -680 4z"/>
<path d="M4676 3479 c-198 -30 -385 -116 -537 -246 -62 -52 -175 -181 -167
-189 3 -2 38 -14 79 -25 316 -87 588 -342 699 -655 57 -161 60 -204 60 -780
l0 -524 720 0 720 0 0 724 c0 458 -4 753 -11 801 -59 428 -365 765 -794 877
-71 18 -114 21 -395 24 -173 1 -342 -2 -374 -7z"/>
<path d="M3119 2970 c-151 -26 -318 -95 -443 -185 -34 -24 -95 -79 -137 -122
-171 -175 -265 -384 -289 -636 -7 -70 -10 -368 -8 -792 l3 -680 1235 0 1235 0
0 750 c0 816 0 810 -58 975 -58 169 -134 286 -265 412 -148 143 -307 226 -509
267 -90 19 -135 21 -410 20 -169 -1 -329 -5 -354 -9z"/>
</g>
</svg>
